<svg xmlns="http://www.w3.org/2000/svg" version="1.1" xmlns:xlink="http://www.w3.org/1999/xlink" xmlns:svgjs="http://svgjs.dev/svgjs" viewBox="0 0 12.613323083023978 4.209919235725417"><g transform="matrix(1,0,0,1,4.162967057140476,1.5424596178627088)"><path d="M400 -10Q297 -10 222 32Q147 74 106 147Q65 220 65 313Q65 385 93 449Q121 513 169.5 563Q218 613 281 641.5Q344 670 415 670Q466 670 501 663.5Q536 657 563.5 646.5Q591 636 619 622L625 444L607 444L538 574Q504 598 476.5 609Q449 620 415 620Q346 620 291 584Q236 548 204.5 484.5Q173 421 173 338Q173 245 203.5 178.5Q234 112 286 77Q338 42 401 42Q453 42 488.5 56Q524 70 552 89L619 201L636 201L624 40Q580 18 530 4Q480 -10 400 -10Z" fill="#595959" transform="matrix(0.0015,0,0,-0.0015,0,1.125)" fill-rule="nonzero"></path><path d="M157 577Q130 577 112 595Q94 613 94 640Q94 668 112 685.5Q130 703 157 703Q184 703 202 685.5Q220 668 220 640Q220 613 202 595Q184 577 157 577ZM49 0L49 16L113 48L113 347L52 398L52 406L200 461L207 461L207 48L269 16L269 0Z" fill="#595959" transform="matrix(0.0015,0,0,-0.0015,1.0979999999999999,1.125)" fill-rule="nonzero"></path><path d="M211 -10Q163 -10 129.5 16Q96 42 96 89L96 405L16 405L16 413L103 451L181 561L190 561L190 451L323 451L323 405L190 405L190 108Q190 82 212.5 70Q235 58 266 58Q285 58 301 60Q317 62 330 65L333 65L333 53Q321 30 289.5 10Q258 -10 211 -10Z" fill="#595959" transform="matrix(0.0015,0,0,-0.0015,1.5899999999999999,1.125)" fill-rule="nonzero"></path><path d="M83 -241Q60 -241 54.5 -234.5Q49 -228 49 -212L49 -158L53 -153L99 -153Q124 -153 138 -149Q152 -145 164 -127.5Q176 -110 194 -69L227 6L40 405L-26 435L-26 451L222 451L222 435L144 405L144 400L272 124L276 124L381 395L381 400L310 435L310 451L505 451L505 435L431 402L233 -79Q224 -102 217.5 -117.5Q211 -133 203 -147.5Q195 -162 180 -183Q160 -212 134 -226.5Q108 -241 83 -241Z" fill="#595959" transform="matrix(0.0015,0,0,-0.0015,2.1479999999999997,1.125)" fill-rule="nonzero"></path><path d="M64 0L64 16L146 56L146 604L64 644L64 660L331 660L331 644L250 604L250 56L331 16L331 0Z" fill="#595959" transform="matrix(0.0015,0,0,-0.0015,2.8815,1.125)" fill-rule="nonzero"></path><path d="M44 0L44 16L108 48L108 347L47 397L47 405L185 461L192 461L201 387L206 387Q244 424 279 442.5Q314 461 358 461Q416 461 454.5 431.5Q493 402 493 343L493 48L556 16L556 0L332 0L332 16L398 48L398 297Q398 340 372 361.5Q346 383 305 383Q280 383 250 375Q220 367 202 350L202 48L268 16L268 0Z" fill="#595959" transform="matrix(0.0015,0,0,-0.0015,3.489,1.125)" fill-rule="nonzero"></path><path d="M211 -10Q163 -10 129.5 16Q96 42 96 89L96 405L16 405L16 413L103 451L181 561L190 561L190 451L323 451L323 405L190 405L190 108Q190 82 212.5 70Q235 58 266 58Q285 58 301 60Q317 62 330 65L333 65L333 53Q321 30 289.5 10Q258 -10 211 -10Z" fill="#595959" transform="matrix(0.0015,0,0,-0.0015,4.388999999999999,1.125)" fill-rule="nonzero"></path><path d="M259 -10Q161 -10 104 49Q47 108 47 206Q47 280 77.5 338Q108 396 158.5 428.5Q209 461 268 461Q348 461 393 406.5Q438 352 439 250L434 245L139 245Q140 199 156.5 160Q173 121 209.5 97Q246 73 308 73Q365 73 437 111L440 111L440 99Q416 53 369 21.5Q322 -10 259 -10ZM250 417Q206 417 177.5 384Q149 351 141 291L354 291Q344 359 318 388Q292 417 250 417Z" fill="#595959" transform="matrix(0.0015,0,0,-0.0015,4.945499999999999,1.125)" fill-rule="nonzero"></path><path d="M47 0L47 16L111 48L111 346L50 397L50 405L188 461L196 461L205 375L209 375Q232 413 251 431.5Q270 450 287 455.5Q304 461 322 461Q331 461 341.5 458.5Q352 456 359 453Q371 448 380 441Q389 434 389 425Q389 416 385 407L364 354L357 354L322 368Q310 372 299 373.5Q288 375 277 375Q234 375 206 334L206 48L279 16L279 0Z" fill="#595959" transform="matrix(0.0015,0,0,-0.0015,5.690999999999999,1.125)" fill-rule="nonzero"></path><path d="M44 0L44 16L108 48L108 347L47 397L47 405L185 461L192 461L201 387L206 387Q244 424 279 442.5Q314 461 358 461Q416 461 454.5 431.5Q493 402 493 343L493 48L556 16L556 0L332 0L332 16L398 48L398 297Q398 340 372 361.5Q346 383 305 383Q280 383 250 375Q220 367 202 350L202 48L268 16L268 0Z" fill="#595959" transform="matrix(0.0015,0,0,-0.0015,6.311999999999999,1.125)" fill-rule="nonzero"></path><path d="M212 -10Q164 -10 129.5 -1.5Q95 7 60 25L60 137L75 137L107 83Q140 28 209 28Q249 28 270.5 46Q292 64 292 96Q292 122 278.5 138Q265 154 239.5 166Q214 178 178 195Q126 218 98.5 246Q71 274 71 323Q71 362 92.5 393Q114 424 148 442.5Q182 461 220 461Q256 461 288 452.5Q320 444 351 428L351 317L337 317L304 369Q271 421 223 421Q190 421 170 404.5Q150 388 150 359Q150 327 173.5 309.5Q197 292 247 270Q276 257 304 242.5Q332 228 350.5 202.5Q369 177 369 130Q369 84 344.5 53Q320 22 284 6Q248 -10 212 -10Z" fill="#595959" transform="matrix(0.0015,0,0,-0.0015,7.212,1.125)" fill-rule="nonzero"></path><g clip-path="url(&quot;#SvgjsClipPath1000&quot;)"><path d=" M -0.2554987500000001 2.0786035919792045 L -3.5741110312569724 2.0786035919792045 L -3.5741110312569724 2.0336420382431664 L -3.3452567227405385 2.0336420382431664 L -3.3452567227405385 -0.4985926681704992 L -2.5359487554918525 -0.4985926681704992 L -2.5359487554918525 0.6488261831731932 L -2.033728200260307 0.6488261831731932 L -2.033728200260307 -0.9536035919792047 L -1.37639028463943 -0.9536035919792047 L -1.37639028463943 1.0858524854874834 L -1.2945602568398407 1.0858524854874834 L -1.2945602568398407 -0.06156636585620889 L -0.48525228959115463 -0.06156636585620889 L -0.48525228959115463 2.0327428071684457 L -0.2563979810747208 2.0327428071684457 Z M -1.043674786992748 2.0336420382431664 L -0.5297642277898329 2.0336420382431664 L -0.5297642277898329 -0.015705581045450057 L -1.2491490875664426 -0.015705581045450057 L -1.2491490875664426 1.0858524854874834 L -1.0441244025301089 1.0858524854874834 L -1.0441244025301089 1.1865663658562087 L -0.9294724405032118 1.1865663658562087 L -0.9294724405032118 1.4221649074330485 L -1.043674786992748 1.4221649074330485 L -1.043674786992748 1.5462587957445135 L -0.929022824965851 1.5462587957445135 L -0.929022824965851 1.7818573373213533 L -1.043674786992748 1.7818573373213533 Z M -1.1511329004218793 2.0336420382431664 L -1.089535571803507 2.0336420382431664 L -1.089535571803507 1.1344109635224047 L -1.7698038798297633 1.1344109635224047 L -1.7698038798297633 2.0336420382431664 L -1.4609180056631819 2.0336420382431664 L -1.4609180056631819 1.6779961481911052 L -1.1488848227350772 1.6779961481911052 Z M -1.4173052985392247 2.0336420382431664 L -1.1969936852326382 2.0336420382431664 L -1.1969936852326382 1.723856933001864 L -1.4159564519271437 1.723856933001864 Z M -2.535049524417132 2.0336420382431664 L -1.8156646646405223 2.0336420382431664 L -1.8156646646405223 0.6946869679839518 L -2.535049524417132 0.6946869679839518 Z M -3.2993959379297797 2.0336420382431664 L -2.58001107815317 2.0336420382431664 L -2.58001107815317 -0.45273188335974024 L -3.2993959379297797 -0.45273188335974024 Z M -1.043674786992748 1.7368957835853152 L -0.9748836097766098 1.7368957835853152 L -0.9748836097766098 1.593018811629993 L -1.043674786992748 1.593018811629993 Z M -1.043674786992748 1.3772033536970103 L -0.9748836097766098 1.3772033536970103 L -0.9748836097766098 1.2333263817416882 L -1.043674786992748 1.2333263817416882 Z M -1.5279107207298788 1.0858524854874834 L -1.4222510694501889 1.0858524854874834 L -1.4222510694501889 -0.9086420382431667 L -1.9878674154495481 -0.9086420382431667 L -1.9878674154495481 0.6488261831731932 L -1.7698038798297633 0.6488261831731932 L -1.7698038798297633 1.0858524854874834 L -1.7248423260937251 1.0858524854874834 L -1.7248423260937251 0.9869370672681994 L -1.6798807723576872 0.9869370672681994 L -1.6798807723576872 1.085402869950123 L -1.5728722744659165 1.085402869950123 L -1.5728722744659165 0.9869370672681994 L -1.5279107207298783 0.9869370672681994 Z M -1.9595416365958445 1.9464166239952527 L -2.0045031903318824 1.9464166239952527 L -2.0045031903318824 1.6766473015790242 L -1.9595416365958445 1.6766473015790242 Z M -2.1533259331981682 1.9464166239952527 L -2.1982874869342064 1.9464166239952527 L -2.1982874869342064 1.6766473015790242 L -2.1533259331981682 1.6766473015790242 Z M -2.3471102298004927 1.9464166239952527 L -2.392071783536531 1.9464166239952527 L -2.392071783536531 1.6766473015790242 L -2.3471102298004927 1.6766473015790242 Z M -1.5265618741177973 1.8789742933911955 L -1.6888730831048948 1.8789742933911955 L -1.6888730831048948 1.8340127396551573 L -1.5265618741177973 1.8340127396551573 Z M -2.6456549466077854 1.8551446699110954 L -3.224759758727956 1.8551446699110954 L -3.224759758727956 1.8101831161750572 L -2.645205331070425 1.8101831161750572 Z M -0.6066484846784577 1.7818573373213533 L -0.8435958728673789 1.7818573373213533 L -0.8435958728673789 1.5462587957445135 L -0.6066484846784577 1.5462587957445135 Z M -0.7963862414445386 1.7368957835853152 L -0.6525092694892165 1.7368957835853152 L -0.6525092694892165 1.593018811629993 L -0.7963862414445386 1.593018811629993 Z M -1.524763411968356 1.7247561640765847 L -1.6888730831048948 1.7247561640765847 L -1.6888730831048948 1.6797946103405466 L -1.5265618741177973 1.6797946103405466 Z M -2.645205331070425 1.6438253673517165 L -3.224759758727956 1.6438253673517165 L -3.224759758727956 1.5988638136156783 L -2.645205331070425 1.5988638136156783 Z M -1.1736136772898984 1.5709876502993347 L -1.6888730831048948 1.5709876502993347 L -1.6888730831048948 1.5260260965632966 L -1.1740632928272583 1.5260260965632966 Z M -1.9590920210584837 1.5125376304424851 L -2.004053574794522 1.5125376304424851 L -2.004053574794522 1.2427683080262566 L -1.9590920210584837 1.2427683080262566 Z M -2.152876317660808 1.5125376304424851 L -2.197837871396846 1.5125376304424851 L -2.197837871396846 1.2427683080262566 L -2.152876317660808 1.2427683080262566 Z M -2.346660614263132 1.5125376304424851 L -2.39162216799917 1.5125376304424851 L -2.39162216799917 1.2427683080262566 L -2.346660614263132 1.2427683080262566 Z M -2.645205331070425 1.434304526941779 L -3.224759758727956 1.434304526941779 L -3.224759758727956 1.3893429732057407 L -2.645205331070425 1.3893429732057407 Z M -0.6066484846784577 1.4217152918956881 L -0.8435958728673789 1.4217152918956881 L -0.8435958728673789 1.1861167503188488 L -0.6066484846784577 1.1861167503188488 Z M -0.7963862414445386 1.37675373815965 L -0.6525092694892165 1.37675373815965 L -0.6525092694892165 1.2328767662043278 L -0.7963862414445386 1.2328767662043278 Z M -1.172264830677817 1.4185679831341653 L -1.6888730831048948 1.4185679831341653 L -1.6888730831048948 1.3736064293981272 L -1.1740632928272583 1.3736064293981272 Z M -1.172264830677817 1.265698700431636 L -1.6888730831048948 1.265698700431636 L -1.6888730831048948 1.2207371466955979 L -1.1740632928272583 1.2207371466955979 Z M -2.643856484458344 1.2261325331439223 L -3.224759758727956 1.2261325331439223 L -3.224759758727956 1.1811709794078842 L -2.645205331070425 1.1811709794078842 Z M -1.9577431744464027 1.0800074835017985 L -2.0027047281824406 1.0800074835017985 L -2.0027047281824406 0.8102381610855698 L -1.9577431744464027 0.8102381610855698 Z M -2.151527471048727 1.0800074835017985 L -2.196489024784765 1.0800074835017985 L -2.196489024784765 0.8102381610855698 L -2.151527471048727 0.8102381610855698 Z M -2.345311767651051 1.0800074835017985 L -2.390273321387089 1.0800074835017985 L -2.390273321387089 0.8102381610855698 L -2.345311767651051 0.8102381610855698 Z M -0.6066484846784577 1.0620228620073833 L -0.8435958728673789 1.0620228620073833 L -0.8435958728673789 0.8264243204305437 L -0.6066484846784577 0.8264243204305437 Z M -0.7963862414445386 1.017061308271345 L -0.6525092694892165 1.017061308271345 L -0.6525092694892165 0.873184336316023 L -0.7963862414445386 0.873184336316023 Z M -0.92767397835377 1.0620228620073833 L -1.1646213665426903 1.0620228620073833 L -1.1646213665426903 0.8264243204305437 L -0.9290228249658505 0.8264243204305437 Z M -1.1174117351198505 1.017061308271345 L -0.9735347631645284 1.017061308271345 L -0.9735347631645284 0.873184336316023 L -1.1174117351198505 0.873184336316023 Z M -2.6461045621451458 1.017061308271345 L -3.224759758727956 1.017061308271345 L -3.224759758727956 0.972099754535307 L -2.645205331070425 0.972099754535307 Z M -1.5283603362672387 0.8763316450775458 L -1.5733218900032768 0.8763316450775458 L -1.5733218900032768 0.7320050575848638 L -1.5283603362672387 0.7320050575848638 Z M -1.6812296189697684 0.8763316450775458 L -1.7261911727058064 0.8763316450775458 L -1.7261911727058064 0.7320050575848638 L -1.6812296189697684 0.7320050575848638 Z M -2.645205331070425 0.807090852324047 L -3.224759758727956 0.807090852324047 L -3.224759758727956 0.762129298588009 L -2.645205331070425 0.762129298588009 Z M -0.6066484846784577 0.7023304321190784 L -0.8435958728673789 0.7023304321190784 L -0.8435958728673789 0.46673189054223885 L -0.6066484846784577 0.46673189054223885 Z M -0.7963862414445386 0.6573688783830403 L -0.6525092694892165 0.6573688783830403 L -0.6525092694892165 0.5134919064277184 L -0.7963862414445386 0.5134919064277184 Z M -0.92767397835377 0.7023304321190784 L -1.1646213665426903 0.7023304321190784 L -1.1646213665426903 0.46673189054223885 L -0.9290228249658505 0.46673189054223885 Z M -1.1174117351198505 0.6573688783830403 L -0.9735347631645284 0.6573688783830403 L -0.9735347631645284 0.5134919064277184 L -1.1174117351198505 0.5134919064277184 Z M -1.5265618741177973 0.62139963539421 L -1.5715234278538355 0.62139963539421 L -1.5715234278538355 0.4770730479015277 L -1.5265618741177973 0.4770730479015277 Z M -1.6794311568203268 0.62139963539421 L -1.724392710556365 0.62139963539421 L -1.724392710556365 0.4770730479015277 L -1.6794311568203268 0.4770730479015277 Z M -1.8323004395228564 0.62139963539421 L -1.8772619932588943 0.62139963539421 L -1.8772619932588943 0.4770730479015277 L -1.8323004395228564 0.4770730479015277 Z M -2.6443060999957044 0.5989188585261909 L -3.224759758727956 0.5989188585261909 L -3.224759758727956 0.5539573047901527 L -2.645205331070425 0.5539573047901527 Z M -2.6443060999957044 0.38984763365361386 L -3.224759758727956 0.38984763365361386 L -3.224759758727956 0.3448860799175757 L -2.645205331070425 0.3448860799175757 Z M -1.5265618741177969 0.3664676257108741 L -1.571523427853835 0.3664676257108741 L -1.571523427853835 0.22259065375555198 L -1.5265618741177969 0.22259065375555198 Z M -1.6794311568203264 0.3664676257108741 L -1.7243927105563646 0.3664676257108741 L -1.7243927105563646 0.22259065375555198 L -1.6794311568203264 0.22259065375555198 Z M -1.832300439522856 0.3664676257108741 L -1.877261993258894 0.3664676257108741 L -1.877261993258894 0.22259065375555198 L -1.832300439522856 0.22259065375555198 Z M -0.6066484846784577 0.34263800223077356 L -0.8435958728673789 0.34263800223077356 L -0.8435958728673789 0.107039460653934 L -0.6066484846784577 0.107039460653934 Z M -0.7963862414445386 0.2976764484947354 L -0.6525092694892165 0.2976764484947354 L -0.6525092694892165 0.1537994765394135 L -0.7963862414445386 0.1537994765394135 Z M -0.92767397835377 0.34263800223077356 L -1.1646213665426903 0.34263800223077356 L -1.1646213665426903 0.107039460653934 L -0.9290228249658505 0.107039460653934 Z M -1.1174117351198505 0.2976764484947354 L -0.9735347631645284 0.2976764484947354 L -0.9735347631645284 0.1537994765394135 L -1.1174117351198505 0.1537994765394135 Z M -2.6461045621451458 0.18122602431839674 L -3.224759758727956 0.18122602431839674 L -3.224759758727956 0.1362644705823588 L -2.645205331070425 0.1362644705823588 Z M -1.5283603362672387 0.11198523156489815 L -1.5733218900032768 0.11198523156489815 L -1.5733218900032768 -0.0323413559277842 L -1.5283603362672387 -0.0323413559277842 Z M -1.6812296189697684 0.11198523156489815 L -1.7261911727058064 0.11198523156489815 L -1.7261911727058064 -0.0323413559277842 L -1.6812296189697684 -0.0323413559277842 Z M -1.8340989016722977 0.11198523156489815 L -1.8790604554083359 0.11198523156489815 L -1.8790604554083359 -0.0323413559277842 L -1.8340989016722977 -0.0323413559277842 Z M -2.645205331070425 -0.029194047166261505 L -3.224759758727956 -0.029194047166261505 L -3.224759758727956 -0.07415560090229956 L -2.645205331070425 -0.07415560090229956 Z M -1.5279107207298788 -0.14429562473051893 L -1.5728722744659165 -0.14429562473051893 L -1.5728722744659165 -0.28727336561112005 L -1.5279107207298788 -0.28727336561112005 Z M -1.680780003432408 -0.14429562473051893 L -1.725741557168446 -0.14429562473051893 L -1.725741557168446 -0.28727336561112005 L -1.680780003432408 -0.28727336561112005 Z M -1.8336492861349376 -0.14429562473051893 L -1.8786108398709755 -0.14429562473051893 L -1.8786108398709755 -0.28727336561112005 L -1.8336492861349376 -0.28727336561112005 Z M -2.645205331070425 -0.23826527203883852 L -3.224759758727956 -0.23826527203883852 L -3.224759758727956 -0.2832268257748767 L -2.645205331070425 -0.2832268257748767 Z M -1.5274611051925184 -0.399227634413855 L -1.5724226589285561 -0.399227634413855 L -1.5724226589285561 -0.5422053752944561 L -1.5274611051925184 -0.5422053752944561 Z M -1.6803303878950477 -0.399227634413855 L -1.725291941631086 -0.399227634413855 L -1.725291941631086 -0.5422053752944561 L -1.6803303878950477 -0.5422053752944561 Z M -1.8331996705975773 -0.399227634413855 L -1.8781612243336152 -0.399227634413855 L -1.8781612243336152 -0.5422053752944561 L -1.8331996705975773 -0.5422053752944561 Z M -1.5274611051925184 -0.6541596440971911 L -1.5724226589285561 -0.6541596440971911 L -1.5724226589285561 -0.7971373849777922 L -1.5274611051925184 -0.7971373849777922 Z M -1.6803303878950477 -0.6541596440971911 L -1.725291941631086 -0.6541596440971911 L -1.725291941631086 -0.7971373849777922 L -1.6803303878950477 -0.7971373849777922 Z M -1.8331996705975773 -0.6541596440971911 L -1.8781612243336152 -0.6541596440971911 L -1.8781612243336152 -0.7971373849777922 L -1.8331996705975773 -0.7971373849777922 Z" fill="#876a57" transform="matrix(1,0,0,1,0,0)" fill-rule="nonzero"></path></g></g><defs><clipPath id="SvgjsClipPath1000"><path d=" M -3.5741110312569724 -0.9536035919792047 h 3.3186122812569723 v 3.0322071839584095 h -3.3186122812569723 Z"></path></clipPath></defs></svg>